{"images":[{"name":"","uri":"1602723572088.png"}],"accessors":[{"componentType":5126,"min":[-302.51348876953125,73.76387023925781,-205.205810546875],"bufferView":0,"max":[241.9688720703125,675.6909790039062,186.83995056152344],"count":170646,"type":"VEC3"},{"componentType":5126,"bufferView":1,"count":170646,"type":"VEC3"},{"componentType":5126,"bufferView":2,"count":170646,"type":"VEC2"},{"componentType":5125,"bufferView":3,"count":170646,"type":"SCALAR"}],"extensionsUsed":["MTL","avatar_shape_names","avatar_arcdata","avatar_glass_keypoints","Arc3DTech"],"textures":[{"name":"","source":0,"sampler":0}],"buffers":[{"byteLength":6143256,"name":"ArcsoftBuffer","uri":"1602723572088.bin"}],"bufferViews":[{"byteOffset":0,"byteLength":2047752,"buffer":0},{"byteOffset":2047752,"byteLength":2047752,"buffer":0},{"byteOffset":4095504,"byteLength":1365168,"buffer":0},{"byteOffset":5460672,"byteLength":682584,"buffer":0}],"samplers":[{"minFilter":9987,"name":"","wrapT":10497,"wrapS":10497,"magFilter":9729}],"scene":0,"nodes":[{"rotation":[0.0,0.0,0.0,1.0],"name":"","translation":[0.0,0.0,0.0],"scale":[1.0,1.0,1.0],"mesh":0}],"materials":[{"extensions":{"MTL":{"d":1.0,"Ns":5.0,"Ka":[0.429,0.535,0.382],"map_Kd":"1602723572088.png","Ks":[0.0,0.0,0.0],"Kd":[0.429,0.535,0.382],"illum":2.0}},"name":"","doubleSided":true,"pbrMetallicRoughness":{"baseColorTexture":{"index":0,"texCoord":0},"metallicFactor":1.0,"roughnessFactor":1.0},"alphaMode":"OPAQUE"}],"scenes":[{"nodes":[0]}],"asset":{"generator":"Arcsoftgltf v1.0","version":"2.0"},"meshes":[{"extensions":{"Arc3DTech":{"Model":"Human","ScanAngle":"-180.0;0.0;0.0;180.0","Date":"10 14,2020 17:58:58"}},"primitives":[{"indices":3,"material":0,"attributes":{"POSITION":0,"TEXCOORD_0":2,"NORMAL":1}}],"name":"ArcsoftMeshes0"}]}